<svg width="13" height="13" viewBox="0 0 13 13" fill="none" xmlns="http://www.w3.org/2000/svg">
<path d="M4.97839 4.9782C4.97839 4.00369 4.97839 3.17911 4.97839 2.35453C5.00338 1.13015 5.5531 0.430508 6.50262 0.505469C7.67702 0.580431 8.00185 1.38003 7.97687 2.42949C7.95188 3.22909 7.97687 4.00369 7.97687 5.00318C8.9014 5.00318 9.80094 5.00318 10.7005 5.00318C11.725 5.00318 12.4496 5.40298 12.4496 6.50242C12.4496 7.57688 11.725 8.00166 10.7005 8.00166C9.82593 8.00166 8.97636 8.00166 7.97687 8.00166C7.97687 8.87622 7.97687 9.65082 7.97687 10.4504C7.97687 11.7997 7.47712 12.4744 6.50262 12.4994C5.50312 12.5244 4.97839 11.7997 4.97839 10.3755C4.97839 9.62584 4.97839 8.9012 4.97839 8.00166C4.00389 8.00166 3.10434 8.02665 2.2048 8.00166C1.10536 7.97667 0.430702 7.35199 0.505663 6.45245C0.580625 5.40298 1.2303 4.9782 2.17981 4.9782C3.05437 4.9782 3.92892 4.9782 4.97839 4.9782Z" fill="#052C54"/>
</svg>
