<svg width="11" height="11" viewBox="0 0 11 11" fill="none" xmlns="http://www.w3.org/2000/svg">
<rect x="0.5" y="0.798462" width="10" height="10" rx="5" fill="#052C54"/>
<path d="M5.51046 4.5535C5.91242 4.15154 6.25254 3.81142 6.59266 3.4713C7.108 2.97657 7.62334 2.91473 7.98407 3.33731C8.43757 3.85265 8.24174 4.31645 7.79855 4.73903C7.45843 5.05853 7.14923 5.38835 6.73696 5.80062C7.11831 6.18197 7.48935 6.55301 7.86039 6.92405C8.28297 7.34663 8.41696 7.81043 7.96346 8.26393C7.52027 8.70712 7.04616 8.58344 6.62358 8.16086C6.26285 7.80013 5.91242 7.4497 5.50015 7.03743C5.13941 7.39816 4.8199 7.71767 4.49009 8.04749C3.93352 8.60405 3.44911 8.6762 3.03684 8.28454C2.61426 7.88258 2.69672 7.36724 3.2842 6.77976C3.5934 6.47056 3.8923 6.17166 4.26334 5.80062C3.86138 5.39866 3.48003 5.03792 3.11929 4.65657C2.6761 4.19277 2.65549 3.65682 3.05745 3.3167C3.52126 2.91473 3.96445 3.00749 4.3561 3.39915C4.71684 3.75989 5.07757 4.12062 5.51046 4.5535Z" fill="white"/>
</svg>
