<svg width="216" height="36" viewBox="0 0 216 36" fill="none" xmlns="http://www.w3.org/2000/svg">
<path d="M12.7551 14.6769C10.1243 14.6769 8.04742 16.2 8.04742 18C8.04742 19.8 10.1243 21.3231 12.7551 21.3231C15.3859 21.3231 17.4628 19.8 17.4628 18C17.4628 16.2 15.3859 14.6769 12.7551 14.6769Z" fill="url(#paint0_linear_2_2)"/>
<path d="M26.1859 15.7846C26.6012 15.5077 26.6012 14.8154 26.3243 14.1231C26.0474 13.5692 25.4936 13.2923 25.0782 13.2923C24.9397 13.2923 24.9397 13.2923 24.8012 13.4308C24.3859 13.7077 24.3859 14.4 24.6628 15.0923C25.0782 15.6461 25.7705 16.0615 26.1859 15.7846Z" fill="url(#paint1_linear_2_2)"/>
<path d="M6.80127 7.75385C10.8167 9.41539 14.5551 9.69231 15.2474 8.16923C15.8013 6.78462 13.032 4.29231 9.01665 2.63077C6.80127 1.66154 4.58588 1.24615 3.0628 1.24615C1.81665 1.24615 0.84742 1.52308 0.708958 2.21539C0.0166507 3.46154 2.78588 5.95385 6.80127 7.75385Z" fill="url(#paint2_linear_2_2)"/>
<path d="M26.1859 21.8769C26.6013 21.1846 26.6013 20.3538 26.0474 20.2154C25.909 20.2154 25.909 20.0769 25.7705 20.0769C25.3551 20.0769 24.9397 20.4923 24.5244 20.9077C24.109 21.6 24.109 22.4307 24.6628 22.5692C25.0782 22.9846 25.7705 22.5692 26.1859 21.8769Z" fill="url(#paint3_linear_2_2)"/>
<path d="M21.3398 10.1077C20.6475 9.69229 19.9551 9.55383 19.4013 9.55383C18.709 9.55383 18.1551 9.83076 18.0167 10.2461C17.4628 11.0769 18.2936 12.4615 19.6782 13.2923C21.0628 14.1231 22.5859 14.1231 23.1398 13.1538C23.4167 12.1846 22.7244 10.8 21.3398 10.1077Z" fill="url(#paint4_linear_2_2)"/>
<path d="M27.432 24.5077H27.2936C26.8782 24.5077 26.0474 25.3385 25.3551 26.5846C24.6628 27.9692 24.3859 29.2154 24.8012 29.4923C25.2166 29.7692 26.1859 28.8 26.8782 27.4154C27.7089 26.0308 27.8474 24.7846 27.432 24.5077Z" fill="url(#paint5_linear_2_2)"/>
<path d="M24.9397 6.50769H24.8013C24.3859 6.78461 24.5244 8.03077 25.3551 9.41538C26.0474 10.8 27.0167 11.6308 27.4321 11.4923C27.8474 11.2154 27.709 9.96923 26.8782 8.58461C26.3244 7.33846 25.4936 6.50769 24.9397 6.50769Z" fill="url(#paint6_linear_2_2)"/>
<path d="M17.8781 25.8923C18.432 26.7231 19.955 26.7231 21.3397 26.0308C22.7243 25.2 23.4166 23.9538 23.0012 22.9846C22.7243 22.5692 22.1704 22.2923 21.6166 22.2923C21.0627 22.2923 20.3704 22.4308 19.6781 22.8461C18.155 23.6769 17.4627 24.9231 17.8781 25.8923Z" fill="url(#paint7_linear_2_2)"/>
<path d="M21.2013 19.5231C22.1705 19.5231 22.8628 18.8307 22.8628 18C22.8628 17.1692 22.032 16.4769 21.2013 16.4769C20.232 16.4769 19.5397 17.1692 19.5397 18C19.5397 18.8307 20.232 19.5231 21.2013 19.5231Z" fill="url(#paint8_linear_2_2)"/>
<path d="M12.7551 26.8615C11.0936 26.8615 9.01664 27.2769 6.80125 28.2461C2.78587 29.9077 0.0166361 32.4 0.570482 33.7846C1.12433 35.1692 4.86279 35.0307 9.01664 33.3692C13.032 31.7077 15.8013 29.2154 15.2474 27.8307C14.9705 27.2769 14.0013 26.8615 12.7551 26.8615Z" fill="url(#paint9_linear_2_2)"/>
<path d="M22.1705 29.9077C21.2013 29.9077 19.6782 30.4615 18.2936 31.4308C16.2166 32.9538 14.9705 34.7538 15.5243 35.5846C16.0782 36.4154 18.2936 35.8615 20.3705 34.3385C22.4474 32.8154 23.6936 31.0154 23.1397 30.1846C23.0013 30.0461 22.5859 29.9077 22.1705 29.9077Z" fill="url(#paint10_linear_2_2)"/>
<path d="M18.2936 4.56926C20.3705 6.09234 22.5859 6.64618 23.1397 5.81541C23.6936 4.98464 22.4474 3.18464 20.3705 1.66157C18.9859 0.692335 17.4628 0.138489 16.4936 0.138489C16.0782 0.138489 15.6628 0.27695 15.5243 0.553873C14.9705 1.24618 16.2166 3.04618 18.2936 4.56926Z" fill="url(#paint11_linear_2_2)"/>
<path d="M175.586 9.4154C175.032 9.00002 174.201 8.72309 173.37 8.58463C172.54 8.44617 171.709 8.30771 170.74 8.30771H165.063V27.6923H166.724V18.5539H171.155C171.847 18.5539 172.54 18.4154 173.37 18.2769C174.063 18.1385 174.755 17.8616 175.447 17.4462C176.001 17.0308 176.555 16.4769 176.97 15.9231C177.386 15.2308 177.524 14.4 177.524 13.4308C177.524 12.4616 177.386 11.6308 176.97 10.9385C176.694 10.2462 176.278 9.69232 175.586 9.4154ZM174.478 16.2C173.647 16.7539 172.54 17.0308 171.294 17.0308H166.863V9.69232H171.294C172.54 9.69232 173.647 9.96925 174.478 10.5231C175.309 11.0769 175.724 12.0462 175.724 13.2923C175.724 14.6769 175.309 15.6462 174.478 16.2Z" fill="#F4F4F4"/>
<path d="M188.186 18.4154C189.709 18.1385 190.817 17.5846 191.786 16.7539C192.617 15.9231 193.032 14.8154 193.032 13.4308C193.032 12.1846 192.755 11.3539 192.34 10.6616C191.924 9.96925 191.371 9.4154 190.678 9.13848C189.986 8.72309 189.155 8.58463 188.186 8.44617C187.217 8.30771 186.247 8.30771 185.278 8.30771H180.432V27.6923H182.094V18.5539H185.832L191.371 27.6923H193.447L187.771 18.4154H188.186ZM184.586 17.1692H182.094V9.69232H185.832C186.386 9.69232 187.078 9.69232 187.632 9.83079C188.186 9.96925 188.878 10.1077 189.294 10.3846C189.847 10.6616 190.263 11.0769 190.54 11.4923C190.817 12.0462 191.094 12.6 191.094 13.4308C191.094 14.4 190.817 15.0923 190.401 15.6462C189.986 16.2 189.432 16.4769 188.74 16.7539C188.047 17.0308 187.355 17.1692 186.663 17.1692C185.971 17.1692 185.278 17.1692 184.586 17.1692Z" fill="#F4F4F4"/>
<path d="M214.355 13.9846C213.801 12.7385 213.109 11.6308 212.278 10.8C211.447 9.96926 210.34 9.13849 209.094 8.7231C207.847 8.16926 206.463 7.89233 205.078 7.89233C203.555 7.89233 202.17 8.16926 201.063 8.7231C199.817 9.27695 198.709 9.96926 197.878 10.8C197.047 11.6308 196.217 12.7385 195.801 13.9846C195.247 15.2308 195.109 16.6154 195.109 18C195.109 19.3846 195.386 20.7693 195.801 22.0154C196.355 23.2616 197.047 24.3693 197.878 25.2C198.709 26.0308 199.817 26.8616 201.063 27.277C202.309 27.8308 203.694 28.1077 205.078 28.1077C206.601 28.1077 207.986 27.8308 209.094 27.277C210.34 26.7231 211.447 26.0308 212.278 25.2C213.109 24.3693 213.94 23.2616 214.355 22.0154C214.909 20.7693 215.047 19.3846 215.047 18C215.047 16.477 214.77 15.0923 214.355 13.9846ZM212.694 21.3231C212.278 22.4308 211.724 23.2616 211.032 24.0923C210.34 24.9231 209.37 25.477 208.401 25.8923C207.432 26.3077 206.186 26.5846 205.078 26.5846C203.832 26.5846 202.724 26.3077 201.755 25.8923C200.786 25.477 199.817 24.7846 199.124 24.0923C198.432 23.2616 197.878 22.4308 197.463 21.3231C197.047 20.2154 196.909 19.1077 196.909 18C196.909 16.7539 197.047 15.6462 197.463 14.677C197.878 13.5693 198.432 12.7385 199.124 11.9077C199.817 11.077 200.786 10.5231 201.755 10.1077C202.724 9.69233 203.97 9.41541 205.078 9.41541C206.324 9.41541 207.432 9.69233 208.401 10.1077C209.37 10.5231 210.34 11.2154 211.032 11.9077C211.724 12.7385 212.278 13.5693 212.694 14.677C213.109 15.7846 213.247 16.8923 213.247 18C213.247 19.1077 213.109 20.2154 212.694 21.3231Z" fill="#F4F4F4"/>
<path opacity="0.35" d="M153.017 0H151.909V36H153.017V0Z" fill="white"/>
<path d="M117.986 16.0615V13.4308H114.247V29.2154H117.986V22.2923C117.986 19.1077 119.647 16.8923 122.417 16.8923C122.832 16.8923 123.247 16.8923 123.386 17.0308V13.1538C123.386 13.1538 123.109 13.0154 122.694 13.0154C120.617 13.1538 118.817 14.2615 117.986 16.0615Z" fill="#F8F8F8"/>
<path d="M105.663 21.7385C105.663 24.3692 104.14 26.1692 101.924 26.1692C99.709 26.1692 98.4628 24.6462 98.4628 22.2923V13.4308H94.5859V22.8462C94.5859 27 96.9398 29.4923 100.678 29.4923C102.894 29.4923 104.555 28.5231 105.663 27V29.0769H109.54V13.4308H105.663V21.7385Z" fill="#F8F8F8"/>
<path d="M140.97 13.4308H136.263L130.17 20.9077L136.817 29.2154H141.524L134.878 20.9077L140.97 13.4308Z" fill="#F8F8F8"/>
<path d="M129.755 6.78461H126.017V29.2154H129.755V6.78461Z" fill="#F8F8F8"/>
<path d="M46.2628 17.1692C48.0628 16.3385 49.032 14.6769 49.032 12.7385C49.032 8.99999 46.1243 6.78461 41.832 6.78461H34.0782V29.2154H42.3859C47.3705 29.2154 50.4166 26.7231 50.4166 22.7077C50.4166 19.9385 48.8936 18.1385 46.2628 17.1692ZM37.9551 9.96922H41.6936C43.909 9.96922 45.2936 11.0769 45.2936 13.0154C45.2936 14.9538 43.7705 16.0615 41.6936 16.0615H37.9551V9.96922ZM42.2474 25.8923H37.8166V19.2461H42.109C44.6013 19.2461 46.4013 20.4923 46.4013 22.5692C46.5397 24.6461 44.8782 25.8923 42.2474 25.8923Z" fill="#F8F8F8"/>
<path d="M58.5859 23.6769V16.6154H62.7397V13.4308H58.4474V9.41537H58.309L51.8013 16.0615V16.6154H54.709V24.3692C54.709 27.6923 56.6474 29.6308 59.832 29.6308C61.2167 29.6308 62.0474 29.3538 62.7397 29.0769V25.7538C62.3243 26.1692 61.632 26.1692 60.9397 26.1692C59.2782 26.1692 58.5859 25.4769 58.5859 23.6769Z" fill="#F8F8F8"/>
<path d="M77.832 10.2461H84.0627V29.2154H88.0781V10.2461H94.4474V6.78461H77.832V10.2461Z" fill="#F8F8F8"/>
<path d="M68.6935 21.3231C68.6935 18.5538 70.9089 16.4769 73.6782 16.4769C75.0628 16.4769 76.3089 16.8923 77.6935 17.8615V14.1231C76.4474 13.4308 74.9243 13.0154 73.4012 13.0154C68.4166 13.0154 64.9551 16.4769 64.9551 21.4615C64.9551 26.1692 68.4166 29.7692 73.4012 29.7692C75.0628 29.7692 76.4474 29.3538 77.832 28.6615V24.9231C76.7243 25.6154 75.3397 26.3077 73.8166 26.3077C70.9089 26.3077 68.6935 24.0923 68.6935 21.3231Z" fill="#F8F8F8"/>
<defs>
<linearGradient id="paint0_linear_2_2" x1="0.484794" y1="18.0199" x2="27.5257" y2="18.0199" gradientUnits="userSpaceOnUse">
<stop stop-color="#003AFF"/>
<stop offset="0.2471" stop-color="#0067FF"/>
<stop offset="0.8035" stop-color="#02D6FF"/>
<stop offset="1" stop-color="#02FFFF"/>
</linearGradient>
<linearGradient id="paint1_linear_2_2" x1="0.484762" y1="14.514" x2="27.5257" y2="14.514" gradientUnits="userSpaceOnUse">
<stop stop-color="#003AFF"/>
<stop offset="0.2471" stop-color="#0067FF"/>
<stop offset="0.8035" stop-color="#02D6FF"/>
<stop offset="1" stop-color="#02FFFF"/>
</linearGradient>
<linearGradient id="paint2_linear_2_2" x1="0.48479" y1="5.12826" x2="27.5257" y2="5.12826" gradientUnits="userSpaceOnUse">
<stop stop-color="#003AFF"/>
<stop offset="0.2471" stop-color="#0067FF"/>
<stop offset="0.8035" stop-color="#02D6FF"/>
<stop offset="1" stop-color="#02FFFF"/>
</linearGradient>
<linearGradient id="paint3_linear_2_2" x1="0.484805" y1="21.4786" x2="27.5257" y2="21.4786" gradientUnits="userSpaceOnUse">
<stop stop-color="#003AFF"/>
<stop offset="0.2471" stop-color="#0067FF"/>
<stop offset="0.8035" stop-color="#02D6FF"/>
<stop offset="1" stop-color="#02FFFF"/>
</linearGradient>
<linearGradient id="paint4_linear_2_2" x1="0.484822" y1="11.6055" x2="27.5257" y2="11.6055" gradientUnits="userSpaceOnUse">
<stop stop-color="#003AFF"/>
<stop offset="0.2471" stop-color="#0067FF"/>
<stop offset="0.8035" stop-color="#02D6FF"/>
<stop offset="1" stop-color="#02FFFF"/>
</linearGradient>
<linearGradient id="paint5_linear_2_2" x1="0.484772" y1="27.044" x2="27.5257" y2="27.044" gradientUnits="userSpaceOnUse">
<stop stop-color="#003AFF"/>
<stop offset="0.2471" stop-color="#0067FF"/>
<stop offset="0.8035" stop-color="#02D6FF"/>
<stop offset="1" stop-color="#02FFFF"/>
</linearGradient>
<linearGradient id="paint6_linear_2_2" x1="0.484809" y1="8.96429" x2="27.5257" y2="8.96429" gradientUnits="userSpaceOnUse">
<stop stop-color="#003AFF"/>
<stop offset="0.2471" stop-color="#0067FF"/>
<stop offset="0.8035" stop-color="#02D6FF"/>
<stop offset="1" stop-color="#02FFFF"/>
</linearGradient>
<linearGradient id="paint7_linear_2_2" x1="0.484724" y1="24.387" x2="27.5256" y2="24.387" gradientUnits="userSpaceOnUse">
<stop stop-color="#003AFF"/>
<stop offset="0.2471" stop-color="#0067FF"/>
<stop offset="0.8035" stop-color="#02D6FF"/>
<stop offset="1" stop-color="#02FFFF"/>
</linearGradient>
<linearGradient id="paint8_linear_2_2" x1="0.484792" y1="18.0198" x2="27.5257" y2="18.0198" gradientUnits="userSpaceOnUse">
<stop stop-color="#003AFF"/>
<stop offset="0.2471" stop-color="#0067FF"/>
<stop offset="0.8035" stop-color="#02D6FF"/>
<stop offset="1" stop-color="#02FFFF"/>
</linearGradient>
<linearGradient id="paint9_linear_2_2" x1="0.484775" y1="30.88" x2="27.5257" y2="30.88" gradientUnits="userSpaceOnUse">
<stop stop-color="#003AFF"/>
<stop offset="0.2471" stop-color="#0067FF"/>
<stop offset="0.8035" stop-color="#02D6FF"/>
<stop offset="1" stop-color="#02FFFF"/>
</linearGradient>
<linearGradient id="paint10_linear_2_2" x1="0.484787" y1="32.9395" x2="27.5257" y2="32.9395" gradientUnits="userSpaceOnUse">
<stop stop-color="#003AFF"/>
<stop offset="0.2471" stop-color="#0067FF"/>
<stop offset="0.8035" stop-color="#02D6FF"/>
<stop offset="1" stop-color="#02FFFF"/>
</linearGradient>
<linearGradient id="paint11_linear_2_2" x1="0.484787" y1="3.06877" x2="27.5257" y2="3.06877" gradientUnits="userSpaceOnUse">
<stop stop-color="#003AFF"/>
<stop offset="0.2471" stop-color="#0067FF"/>
<stop offset="0.8035" stop-color="#02D6FF"/>
<stop offset="1" stop-color="#02FFFF"/>
</linearGradient>
</defs>
</svg>
